<svg id="svg" xmlns="http://www.w3.org/2000/svg" viewBox="0 0 400 400"><defs><style>.cls-1{fill:none;stroke:#000;stroke-linecap:round;stroke-linejoin:round;stroke-width:20px;}</style></defs><title>blueprint</title><g id="group"><path id="primary" class="cls-1" d="M347.8,73.3A42.21,42.21,0,0,1,390,115.5h0V347.8a42.21,42.21,0,0,0-42.2-42.2H305.6V73.3Zm0,232.2H305.6V136.6H178.9v42.2H119.8L77.6,136.6H31.1A21.1,21.1,0,0,0,10,157.7h0V368.9A21.1,21.1,0,0,0,31.1,390H347.8a42.25,42.25,0,0,0,0-84.5Z"/><path id="secondary" class="cls-1" d="M16.1,75.2,119.8,178.9h59.1V119.8L75.2,16a21.13,21.13,0,0,0-29.5,0L16.1,45.6A21.25,21.25,0,0,0,16.1,75.2Z"/></g></svg>