<svg id="svg" xmlns="http://www.w3.org/2000/svg" viewBox="0 0 400 400"><title>blueprint</title><path d="M178.86,188.93H119.77a10.33,10.33,0,0,1-7.1-2.9L9,82.34l-.1-.1a31.26,31.26,0,0,1,0-43.59l.1-.1L38.59,9l.1-.1a31.14,31.14,0,0,1,43.49,0l.1.1L186,112.74a9.9,9.9,0,0,1,2.9,7.1v59.09A10,10,0,0,1,178.86,188.93Zm-55-20h45v-45L68.18,23.15a11.1,11.1,0,0,0-15.49,0L23.19,52.64a11.25,11.25,0,0,0,0,15.6Z"/><path d="M347.71,400H31.09A31.2,31.2,0,0,1,0,368.9V157.73a31.2,31.2,0,0,1,31.09-31.1H77.58a10.33,10.33,0,0,1,7.1,2.9L124,168.83h45v-32.2a10,10,0,0,1,10-10H295.63V73.34a10,10,0,0,1,10-10h42.19A52.23,52.23,0,0,1,400,115.54V347.81A52.38,52.38,0,0,1,347.71,400ZM31.09,146.63A11.14,11.14,0,0,0,20,157.73V368.9A11.14,11.14,0,0,0,31.09,380H347.71a32.19,32.19,0,0,0,32.2-31.29v-.9a32.24,32.24,0,0,0-32.2-32.2H305.52a10,10,0,0,1-10-10v-159H188.85v32.2a10,10,0,0,1-10,10H119.77a10.33,10.33,0,0,1-7.1-2.9l-39.29-39.3ZM315.52,295.51h32.19a52.51,52.51,0,0,1,32.2,11.1V115.54a32.31,32.31,0,0,0-32.2-32.2H315.52Z"/></svg>