<svg id="svg" xmlns="http://www.w3.org/2000/svg" viewBox="0 0 400.01 400"><title>box</title><path d="M200.1,400c-20.3,0-37.6-9.1-72.1-27.2L89.5,352.6C48.4,331,25.7,319.1,12.8,297.3,0,275.8,0,250.9,0,201.1v-2.2c0-49.8,0-74.8,12.9-96.3C25.6,81,46.7,69.9,88.9,47.7l.7-.4,38.5-20.2C162.6,9.1,179.9,0,200.2,0s37.6,9.1,72.1,27.2l38.8,20.3c42.4,22.3,63.6,33.4,76.4,55.1,9.5,16,11.8,34.5,12.5,59.1a10,10,0,0,1-20,.6c-.7-25.7-3.3-38.6-9.7-49.5-9.9-16.8-29.5-27.1-68.5-47.6L263,44.9C231.4,28.3,215.5,20,200.2,20S169,28.3,137.4,44.9L98.2,65.4C59.4,85.8,40,96,30.2,112.7,20,129.7,20,152.8,20,198.9v2.2c0,46.1,0,69.3,10,86.1S59.7,314.4,98.8,335l38.5,20.2c31.6,16.6,47.5,24.9,62.8,24.9s31.2-8.3,62.8-24.9l39.2-20.5c38.8-20.4,58.2-30.6,68-47.3,6.5-11,9-24,9.7-49.5a10,10,0,1,1,20,.6c-.7,24.6-3,43-12.5,59.1-12.7,21.6-33.8,32.8-76,54.9l-.7.4-38.5,20.2C237.7,390.9,220.4,400,200.1,400Z"/><path d="M200.1,390.5a10,10,0,0,1-10-10V206.2L24.5,123.4a10,10,0,1,1,8.9-17.9L200,188.8l73.1-36.6L109.9,66.4a10,10,0,1,1,9.3-17.7l176.1,92.6,71.5-35.7a10,10,0,0,1,8.9,17.9l-70.6,35.2V219a10,10,0,0,1-20,0V168.6L210,206.2V380.5A9.88,9.88,0,0,1,200.1,390.5Z"/></svg>