<svg id="svg" xmlns="http://www.w3.org/2000/svg" viewBox="0 0 400 400"><defs><style>.cls-1{fill:none;stroke:#000;stroke-linecap:round;stroke-miterlimit:133.33;stroke-width:20px;}</style></defs><title>box</title><g id="group"><path id="path1" class="cls-1" d="M390,162c-.7-24.9-3.1-40.8-11.1-54.3-11.4-19.3-31.8-30-72.7-51.5l-38-19.9C234.8,18.8,218.1,10,200.2,10s-34.6,8.8-68,26.3l-38,19.9C53.3,77.7,32.8,88.4,21.5,107.7,10,126.9,10,150.9,10,198.9v2.2c0,48,0,72,11.4,91.2s31.8,30,72.7,51.5l38,19.9c33.4,17.5,50.1,26.3,68,26.3s34.6-8.8,68-26.3l38-19.9c40.9-21.5,61.4-32.2,72.7-51.5,8-13.6,10.4-29.4,11.1-54.3" transform="translate(0 0)"/><path id="path2" class="cls-1" d="M371.3,114.5l-76.1,38M200.1,200,29,114.5M200.1,200V380.5m0-180.5,85.6-42.8c3.7-1.9,9.5-4.8,9.5-4.8m0,.1V219m0-66.5-180.6-95" transform="translate(0 0)"/></g></svg>