<svg id="svg" xmlns="http://www.w3.org/2000/svg" viewBox="0 0 360 400"><title>build_route</title><path d="M311.19,0c-26.9.1-48.6,22.7-48.8,50.7a51.29,51.29,0,0,0,9,29.1l33.8,61.2c4.8,6.5,8,5.2,11.9-.3l37.4-66.4a35.68,35.68,0,0,0,1.9-4.5A51.83,51.83,0,0,0,360,50.7C359.89,22.7,338.09.1,311.19,0Zm0,23.8c14.3,0,25.9,12.1,25.9,27s-11.6,27-25.9,27-25.9-12.1-25.9-27,11.4-26.9,25.6-27Z" transform="translate(0.01)"/><path d="M313.09,155.4c-9,.2-17.9.6-26.9,1.3l1.4,23c8.6-.7,17.3-1.1,25.9-1.3Zm-47.7,3.4a267.84,267.84,0,0,0-41.49,8.4l5.2,22.3a243.31,243.31,0,0,1,38.69-7.8ZM203.3,174.9a92.22,92.22,0,0,0-11.9,6.6h0a57.54,57.54,0,0,0-15.9,14.8,37.86,37.86,0,0,0-6.9,18.1l20.3,2.4a13.28,13.28,0,0,1,2.5-6h0a36.62,36.62,0,0,1,10.3-9.3h0a79.09,79.09,0,0,1,9.5-5.2ZM192.8,227l-13.1,17.6a60.85,60.85,0,0,0,9.5,7.2h0c10.5,6.2,21.3,9.7,31.3,13.1l5.8-22.1c-10-3.3-19.5-6.6-27.5-11.3a33.59,33.59,0,0,1-6-4.5Zm53.1,22-5.6,22.1,2.6.9,3.3,1.1c10.79,3.7,21.09,7.6,30.39,13l9.4-20.4c-11.2-6.6-22.8-10.8-34-14.6h0L248.6,250Zm59.19,32-14.4,16.3a32,32,0,0,1,7.2,13.3v.1a44.16,44.16,0,0,1,.3,18.8l20,4.5c1.6-9.3,1.9-19.7-.8-29.8a56,56,0,0,0-12.3-23.2Zm-13.9,62.3a45.25,45.25,0,0,1-7.3,6.5h0c-7.2,5.3-15.5,9.2-24.3,12.6l6.6,21.8c9.6-3.7,19.6-8.3,28.9-15.1h0a72.69,72.69,0,0,0,10.5-9.5ZM240.9,368.6a394.37,394.37,0,0,1-39.1,8.6l3.1,22.8c13.6-2.4,27.3-5.3,40.9-9.1Z" transform="translate(0.01)"/><path d="M178,400H119.2a9.92,9.92,0,0,1-7.2-3.1L8.81,289.4l-.2-.2a32.63,32.63,0,0,1,0-44.2l.1-.2,29.4-30.7.7-.7a30.45,30.45,0,0,1,43,.7L185.1,321.8a9.93,9.93,0,0,1,2.8,6.9V390A9.88,9.88,0,0,1,178,400Zm-54.6-20H168V332.7L67.61,228a10.41,10.41,0,0,0-14.7-.2l-.2.2-29.3,30.6a12.6,12.6,0,0,0,0,17Z" transform="translate(0.01)"/></svg>