<svg id="svg" xmlns="http://www.w3.org/2000/svg" viewBox="0 0 360 400"><defs><style>.cls-1{fill-rule:evenodd;}.cls-2{fill:none;stroke:#000;stroke-linecap:round;stroke-linejoin:round;stroke-width:20px;}</style></defs><title>build_route</title><g id="group"><path d="M331.24,0c-26.87.08-48.64,22.73-48.75,50.73a51.71,51.71,0,0,0,8.95,29.11L325.27,141c4.76,6.47,8,5.18,11.86-.34l37.4-66.36a30,30,0,0,0,1.86-4.5A52.15,52.15,0,0,0,380,50.73C379.9,22.73,358.12.07,331.24,0Zm0,23.77c14.29,0,25.87,12.07,25.87,27s-11.58,27-25.87,27-25.87-12.07-25.87-27,11.4-26.88,25.61-27Z" transform="translate(-20)"/><path class="cls-1" d="M333.07,155.38c-8.95.21-17.91.6-26.86,1.3l1.38,23q12.93-1,25.92-1.25Zm-47.66,3.41a262.67,262.67,0,0,0-41.51,8.44l5.18,22.26a246.51,246.51,0,0,1,38.65-7.83Zm-62.14,16.14a95.74,95.74,0,0,0-11.94,6.58h0a57.76,57.76,0,0,0-15.92,14.79,37,37,0,0,0-6.86,18.07l20.28,2.35a13,13,0,0,1,2.47-6h0a38.25,38.25,0,0,1,10.28-9.34h0a77.35,77.35,0,0,1,9.5-5.18ZM212.83,227l-13.14,17.63a53.34,53.34,0,0,0,9.54,7.16h0c10.47,6.23,21.27,9.73,31.28,13.06l5.77-22.09c-10-3.33-19.46-6.55-27.54-11.34a34.64,34.64,0,0,1-6-4.44Zm53.08,22-5.62,22.12,2.65.86,3.27,1.09c10.8,3.67,21.15,7.59,30.41,13L306,265.63c-11.19-6.56-22.8-10.84-34-14.64h0l-3.39-1.11Zm59.17,32-14.41,16.29a32.81,32.81,0,0,1,7.19,13.26v.06a44.8,44.8,0,0,1,.33,18.8l20,4.47c1.63-9.33,1.9-19.7-.79-29.81A56.27,56.27,0,0,0,325.08,281Zm-13.86,62.28a47.27,47.27,0,0,1-7.26,6.53h0c-7.17,5.25-15.47,9.22-24.31,12.62l6.59,21.78c9.65-3.73,19.57-8.3,28.85-15.1h0a67.49,67.49,0,0,0,10.5-9.5Zm-50.31,25.29c-12.78,3.59-25.87,6.32-39.08,8.64L224.94,400c13.62-2.4,27.3-5.25,40.88-9.06Z" transform="translate(-20)"/><path id="secondary" class="cls-2" d="M36,273.46,139.16,381H198V319.7L94.78,212.08a20.44,20.44,0,0,0-29.36,0L36,242.77A22.71,22.71,0,0,0,36,273.46Z" transform="translate(-20)"/></g></svg>