<svg id="svg" xmlns="http://www.w3.org/2000/svg" viewBox="0 0 310 400"><title>database</title><path d="M10,324A10,10,0,0,1,0,314V86a10,10,0,0,1,20,0V314A10,10,0,0,1,10,324Z"/><path d="M300,324a10,10,0,0,1-10-10V86a10,10,0,0,1,20,0V314A10,10,0,0,1,300,324Z"/><path d="M155,172C68.1,172,0,134.2,0,86S68.1,0,155,0,310,37.8,310,86,241.9,172,155,172Zm0-152C81.8,20,20,50.2,20,86s61.8,66,135,66,135-30.2,135-66S228.2,20,155,20Z"/><path d="M155,286C68.1,286,0,248.2,0,200H20c0,35.8,61.8,66,135,66s135-30.2,135-66h20C310,248.2,241.9,286,155,286Z"/><path d="M155,400C68.1,400,0,362.2,0,314H20c0,35.8,61.8,66,135,66s135-30.2,135-66h20C310,362.2,241.9,400,155,400Z"/></svg>