<svg id="svg" xmlns="http://www.w3.org/2000/svg" viewBox="0 0 400.2 400.1"><defs><style>.cls-1{fill:none;stroke:#000;stroke-linecap:round;stroke-linejoin:round;stroke-width:20px;}</style></defs><title>gear</title><g id="group"><path class="cls-1" d="M263.3,200A63.3,63.3,0,1,1,200,136.7,63.31,63.31,0,0,1,263.3,200Z" transform="translate(-0.1)"/><path class="cls-1" d="M219.1,11.3C214.8,10,209.8,10,200,10s-14.8,0-19.1,1.3a32.08,32.08,0,0,0-16.1,10.9c-2.8,3.6-4.6,8.1-8.3,17.3a26.68,26.68,0,0,1-33.2,15.4l-12-4c-8.5-2.8-12.8-4.3-17-4.5a30.88,30.88,0,0,0-17.6,4.2c-3.6,2.1-6.8,5.3-13.2,11.6-6.8,6.8-10.2,10.2-12.3,14a31.23,31.23,0,0,0-3.8,18.7c.5,4.4,2.2,8.8,5.8,17.7a30.51,30.51,0,0,1-12.6,37.5l-5.9,3.5c-9,5.4-13.5,8.1-16.7,11.8a31,31,0,0,0-6.4,11.3c-1.5,4.7-1.5,10-1.5,20.5,0,12.5,0,18.8,2,24.1a31.8,31.8,0,0,0,8.4,12.4c4.2,3.8,10,6.1,21.5,10.7a23.88,23.88,0,0,1,13.8,29.8l-4.5,13.6c-3.1,9.4-4.7,14.2-4.9,18.8a30.78,30.78,0,0,0,3.8,16c2.2,4.1,5.7,7.6,12.8,14.6S73.6,347.8,77.6,350a31.78,31.78,0,0,0,16,3.8c4.6-.1,9.4-1.7,18.8-4.9l11.1-3.7a26.63,26.63,0,0,1,33.2,15.4c3.7,9.1,5.5,13.7,8.3,17.3a32.08,32.08,0,0,0,16.1,10.9c4.3,1.3,9.3,1.3,19.1,1.3s14.8,0,19.1-1.3a32.08,32.08,0,0,0,16.1-10.9c2.8-3.6,4.6-8.1,8.3-17.3a26.68,26.68,0,0,1,33.2-15.4l11.1,3.7c9.4,3.1,14.2,4.7,18.8,4.9a30.78,30.78,0,0,0,16-3.8c4.1-2.2,7.6-5.7,14.6-12.8s10.6-10.6,12.8-14.6a32.85,32.85,0,0,0,3.8-16c-.1-4.6-1.7-9.4-4.9-18.8l-4.5-13.6a23.92,23.92,0,0,1,13.8-29.8c11.5-4.6,17.2-6.9,21.5-10.7a32.15,32.15,0,0,0,8.4-12.4c2-5.4,2-11.6,2-24.1,0-10.6,0-15.8-1.5-20.5a31,31,0,0,0-6.4-11.3c-3.3-3.7-7.7-6.4-16.7-11.8l-5.9-3.5a30.4,30.4,0,0,1-12.6-37.5c3.6-8.9,5.3-13.3,5.8-17.7a32,32,0,0,0-3.8-18.7c-2.2-3.9-5.5-7.3-12.3-14-6.4-6.4-9.6-9.6-13.2-11.6a31.9,31.9,0,0,0-17.6-4.2c-4.2.2-8.5,1.7-17,4.5l-12,4a26.63,26.63,0,0,1-33.2-15.4c-3.7-9.1-5.5-13.7-8.3-17.3A33.59,33.59,0,0,0,219.1,11.3Z" transform="translate(-0.1)"/></g></svg>