<svg id="svg" xmlns="http://www.w3.org/2000/svg" viewBox="0 0 400 400"><title>gear</title><path d="M199.9,273.28A73.28,73.28,0,1,1,273.15,200h0A73.37,73.37,0,0,1,199.9,273.28Zm0-126.57A53.29,53.29,0,1,0,253.16,200,53.32,53.32,0,0,0,199.9,146.71Z" transform="translate(-0.15 -0.05)"/><path d="M200.1,400.05c-10.49,0-16.29,0-22-1.7A42.49,42.49,0,0,1,157,384.05c-3.59-4.59-5.59-9.49-9.19-18.39l-.5-1.3a16.65,16.65,0,0,0-20.78-9.7l-11.1,3.7c-9.59,3.3-15.48,5.3-21.68,5.4a41.68,41.68,0,0,1-21-5c-5-2.7-8.9-6.6-15.29-13l-1.5-1.5c-7.2-7.09-11.59-11.39-14.59-16.89a41.1,41.1,0,0,1-5-21.1c.3-6,2-11.39,5.3-21.19l4.6-14a14,14,0,0,0-8-17.39l-.3-.1c-12-4.8-18.68-7.5-24.18-12.4a44.59,44.59,0,0,1-11.09-16.4c-2.6-7-2.6-14.29-2.6-27.59,0-11.2,0-17.39,2-23.49a41.73,41.73,0,0,1,8.39-14.9c4.2-4.9,9.5-8,19.09-13.8l5.89-3.5a20.41,20.41,0,0,0,8.4-25.19c-3.8-9.3-5.8-14.5-6.4-20.29a40.83,40.83,0,0,1,5-24.7c2.8-5,6.69-9,14-16.19l.7-.7c6.39-6.3,10-9.8,14.59-12.5A40.7,40.7,0,0,1,95,36.44c5.29.3,10.09,1.9,18,4.5l13.59,4.5a16.68,16.68,0,0,0,20.78-9.6l.1-.2c3.8-9.6,6-14.8,9.59-19.49a42.51,42.51,0,0,1,21.19-14.4C183.61.05,189.41.05,199.9.05s16.29,0,22,1.7a44.29,44.29,0,0,1,21.39,14.1l.2.2c3.49,4.49,5.49,9.39,9.09,18.39l.5,1.3a16.65,16.65,0,0,0,20.78,9.7l13.59-4.5c8-2.6,12.79-4.2,18.09-4.5a42.09,42.09,0,0,1,23,5.5c4.8,2.7,8.6,6.4,15.29,13.2,6.9,6.79,11,11,13.89,16.19v.1a41.83,41.83,0,0,1,5,24.5V96c-.7,5.79-2.7,10.89-6.5,20.29a20.35,20.35,0,0,0,8.5,25.19l5.89,3.5c9.1,5.5,14.59,8.8,19.09,13.7a41.54,41.54,0,0,1,8.49,15c2,6.1,2,12.29,2,23.49,0,13.2,0,20.5-2.6,27.59a42.41,42.41,0,0,1-11,16.3l-.1.1c-5.6,5-12.29,7.7-24.38,12.5a13.87,13.87,0,0,0-8,17.29l4.5,13.6c3.3,9.6,5.3,15.49,5.4,21.69a43.28,43.28,0,0,1-5,20.9l-.1.1c-2.7,4.9-6.49,8.8-12.89,15.19l-1.5,1.6c-7.09,7.2-11.39,11.6-16.89,14.6a40.06,40.06,0,0,1-21.08,5c-6-.3-11.39-2-21.18-5.3l-11.5-3.8a16.68,16.68,0,0,0-20.78,9.6l-.1.2c-3.9,9.6-6,14.9-9.59,19.49a42.51,42.51,0,0,1-21.19,14.4C216.39,400.05,210.59,400.05,200.1,400.05ZM132,333.77a36.49,36.49,0,0,1,34,23.09l.5,1.2c3,7.3,4.59,11.3,6.39,13.6a21.45,21.45,0,0,0,11,7.4c2.9.9,7.7.9,16.29.9s13.29,0,16.19-.9a21.48,21.48,0,0,0,11.09-7.5c1.9-2.4,3.5-6.5,6.79-14.7l.1-.2a36.72,36.72,0,0,1,45.57-21.19l11.39,3.8c8.1,2.69,12.59,4.19,15.79,4.29a20.18,20.18,0,0,0,10.69-2.6.1.1,0,0,0,.1-.1c2.8-1.49,5.9-4.59,12.19-11l1.5-1.6c5.3-5.3,8.2-8.3,9.59-10.8a22.3,22.3,0,0,0,2.6-11c-.1-3-1.5-7.19-4.39-15.79L334.8,277a33.85,33.85,0,0,1,19.58-42.19c10.7-4.3,15.59-6.3,18.49-8.9a22.42,22.42,0,0,0,5.7-8.49c1.4-3.7,1.4-9.3,1.4-20.6,0-9.5,0-14.2-1-17.49a21.58,21.58,0,0,0-4.3-7.7c-2.3-2.6-6.3-5-14.39-9.9l-5.9-3.5a40.26,40.26,0,0,1-16.78-49.79c3.39-8.3,4.79-12,5.09-15a23,23,0,0,0-2.59-12.8c-1.5-2.7-4.4-5.7-10.6-11.7-5.59-5.6-8.69-8.7-11-10a.1.1,0,0,1-.1-.1,22.34,22.34,0,0,0-12.09-2.9c-2.6.1-6.19,1.3-12.79,3.5L280,63.93a36.61,36.61,0,0,1-45.67-21.19L234,42c-2.89-7.2-4.49-11.2-6.29-13.5A23.41,23.41,0,0,0,216.19,21h-.1c-2.9-.9-7.6-.9-16.19-.9s-13.29,0-16.19.9a21.48,21.48,0,0,0-11.09,7.5c-1.9,2.4-3.5,6.5-6.79,14.6l-.1.2a36.68,36.68,0,0,1-45.57,21.19L106.67,60c-6.59-2.2-10.19-3.4-12.79-3.5h-.2a20.57,20.57,0,0,0-11.89,2.8c-2.4,1.39-5.3,4.29-10.59,9.49l-.6.6c-5.9,5.9-9.1,9.1-10.59,11.7a21.08,21.08,0,0,0-2.6,12.8c.3,3,1.8,6.69,5.09,15a40.4,40.4,0,0,1-16.68,49.79l-6,3.5c-8,4.8-12.09,7.3-14.19,9.7l-.1.1a20.16,20.16,0,0,0-4.3,7.7c-1,3.29-1,8-1,17.49,0,10.9,0,17,1.4,20.6a20.88,20.88,0,0,0,5.8,8.49c2.8,2.5,8.29,4.7,18.19,8.7l.3.1A33.92,33.92,0,0,1,65.5,277.38l-4.6,13.9c-2.69,8.1-4.19,12.59-4.29,15.69a20.21,20.21,0,0,0,2.6,10.7.1.1,0,0,0,.1.1c1.49,2.8,4.59,5.9,11,12.2l1.6,1.5c5.39,5.3,8.39,8.3,10.79,9.59a21.64,21.64,0,0,0,10.89,2.6c3.1-.1,7.29-1.5,15.89-4.39l11.19-3.7A35.14,35.14,0,0,1,132,333.77Z" transform="translate(-0.15 -0.05)"/></svg>