<svg id="svg" xmlns="http://www.w3.org/2000/svg" viewBox="0 0 400 400.1"><defs><style>.cls-1{fill:none;stroke:#000;stroke-linecap:round;stroke-miterlimit:10;stroke-width:20px;}</style></defs><title>house</title><g id="group"><path id="path1" class="cls-1" d="M242.2,390V259.8H157.8V390m190-243.5V285.8c0,36.4,0,54.7-6.9,68.6a64.46,64.46,0,0,1-27.7,28.4c-13.5,7.1-31.3,7.1-66.8,7.1H153.5c-35.5,0-53.2,0-66.8-7.1A64.46,64.46,0,0,1,59,354.4c-6.9-13.9-6.9-32.1-6.9-68.6V146.5M390,194.7,275.3,63.7C249.2,33.9,236.2,19,220.8,13.5a62.18,62.18,0,0,0-41.7,0c-15.4,5.5-28.4,20.4-54.5,50.2L10,194.7" transform="translate(0 0.1)"/></g></svg>