<svg id="svg" xmlns="http://www.w3.org/2000/svg" viewBox="0 0 400 400"><title>house</title><path d="M242.21,400.05a6.15,6.15,0,0,1-1.4-.1H159.19a13.1,13.1,0,0,1-2.8,0h-2.9c-37.11,0-55.72,0-71.42-8.2a74,74,0,0,1-32-32.79c-7.9-16-7.9-35.09-7.9-73V173.31L17.55,201.4a9.89,9.89,0,0,1-14.1.9,9.88,9.88,0,0,1-.9-14.1L44,140.81a17.3,17.3,0,0,1,1.3-1.49l72.22-82.48C144.48,26,158,10.55,175.79,4.25a71.88,71.88,0,0,1,48.42,0C242,10.65,255.52,26,282.52,56.84l72.72,83.08c.1.1.2.19.2.29l42.11,48.09a10,10,0,0,1-15,13.2l-24.71-28.19V286c0,38,0,57-7.9,73a74,74,0,0,1-32,32.79c-15.7,8.3-34.31,8.3-71.52,8.3h-4.2ZM167.79,380h64.42V269.88H167.79V380ZM62.06,150.41V285.88c0,34.89,0,52.39,5.9,64.18a54.36,54.36,0,0,0,23.41,24c10.7,5.6,26.41,5.89,56.42,5.89V249.89H252.21V380c30,0,45.72-.3,56.32-5.9a54.36,54.36,0,0,0,23.41-24c5.9-11.79,5.9-29.29,5.9-64.18V150.41L267.42,70c-24.71-28.19-37.11-42.39-50-47a52.67,52.67,0,0,0-35,0c-12.91,4.6-25.31,18.8-50,46.89l-.4.4Z" transform="translate(-0.01 -0.05)"/></svg>