<svg id="svg" xmlns="http://www.w3.org/2000/svg" viewBox="0 0 400 400"><title>map</title><path d="M136.68,400h0a10.05,10.05,0,0,1-4.95-1.31l-.11-.06L5.1,327.47A10,10,0,0,1,0,318.75V10A10,10,0,0,1,14.9,1.28l121.77,68.5L258.28,1.37h0a9.71,9.71,0,0,1,2.51-1A9.82,9.82,0,0,1,263.32,0h0a10.05,10.05,0,0,1,5,1.31l.11.06L394.9,72.53a10,10,0,0,1,5.1,8.72V390a10,10,0,0,1-14.9,8.72l-121.77-68.5L141.72,398.63h0a9.71,9.71,0,0,1-2.51,1A9.82,9.82,0,0,1,136.68,400Zm10-312.9V372.9l106.66-60V27.1ZM273.33,312.9,380,372.9V87.1l-106.67-60ZM20,312.9l106.67,60V87.1L20,27.1Z" transform="translate(0 0)"/></svg>