<svg id="svg" xmlns="http://www.w3.org/2000/svg" viewBox="0 0 400 400"><defs><style>.cls-1{fill-rule:evenodd;}</style></defs><title>route</title><g id="group"><path d="M84,128.18c-46.16,0-84,37.78-84,83.88a83.18,83.18,0,0,0,15.34,48.12L73.75,361.3c8.18,10.7,13.62,8.67,20.43-.56l64.42-109.8a48,48,0,0,0,3.21-7.43A82.92,82.92,0,0,0,168,212.06C168,166,130.18,128.18,84,128.18Zm0,39.31a44.58,44.58,0,1,1-44.64,44.58A44.35,44.35,0,0,1,84,167.49Z"/><path d="M351,0a49.14,49.14,0,0,0-49,48.93A48.48,48.48,0,0,0,311,77L345,136c4.78,6.24,8,5,11.92-.33l37.58-64a27.84,27.84,0,0,0,1.87-4.34A48.46,48.46,0,0,0,400,48.93,49.12,49.12,0,0,0,351,0Zm0,22.93a26,26,0,1,1-26,26A25.87,25.87,0,0,1,351,22.93Z"/><path class="cls-1" d="M352.84,149.86c-9,.2-18,.58-27,1.25l1.39,22.16q13-.95,26.05-1.21Zm-47.9,3.29a273.39,273.39,0,0,0-41.72,8.14l5.21,21.47a256.17,256.17,0,0,1,38.84-7.55Zm-62.45,15.57a97.61,97.61,0,0,0-12,6.34l0,0h0a57.23,57.23,0,0,0-16,14.27,34.76,34.76,0,0,0-6.89,17.42l20.38,2.27a12.26,12.26,0,0,1,2.48-5.8h0a37.87,37.87,0,0,1,10.33-9h0a79.12,79.12,0,0,1,9.55-5ZM232,218.93l-13.21,17a53.94,53.94,0,0,0,9.59,6.91l0,0,0,0c10.52,6,21.38,9.38,31.44,12.59l5.79-21.3c-10.06-3.22-19.55-6.32-27.67-10.94a34.7,34.7,0,0,1-6-4.28Zm53.34,21.21-5.65,21.34,2.67.83,3.28,1.05c10.86,3.54,21.26,7.32,30.56,12.54l9.43-19.71c-11.24-6.32-22.91-10.45-34.15-14.12h0L288.08,241ZM344.81,271l-14.49,15.71a31.29,31.29,0,0,1,7.23,12.79v.06a41.52,41.52,0,0,1,.33,18.13L358,322c1.64-9,1.91-19-.79-28.75A53.66,53.66,0,0,0,344.81,271Zm-13.93,60.07a47.06,47.06,0,0,1-7.3,6.29h0c-7.2,5.07-15.55,8.9-24.43,12.18l6.62,21c9.7-3.6,19.67-8,29-14.56l0,0h0a67.66,67.66,0,0,0,10.55-9.16Zm-50.56,24.39c-12.85,3.46-26,6.09-39.28,8.33l3.13,22c13.69-2.31,27.43-5.06,41.08-8.74ZM221,366.8c-13.38,1.83-26.84,3.32-40.33,4.6l1.76,22.11c13.71-1.29,27.44-2.8,41.14-4.68Zm-60.62,6.34q-20.28,1.61-40.65,2.68l1,22.18q20.55-1.11,41.12-2.72Zm-61,3.68q-12.21.57-24.46,1l.67,22.2q12.34-.42,24.67-1Z"/></g></svg>