<svg id="svg" xmlns="http://www.w3.org/2000/svg" viewBox="0 0 400 400"><title>route</title><path d="M84,128.2c-46.2,0-84,37.8-84,83.9a83.57,83.57,0,0,0,15.3,48.1L73.7,361.3c8.2,10.7,13.6,8.7,20.4-.6l64.4-109.8a43.54,43.54,0,0,0,3.2-7.4,82.9,82.9,0,0,0,6.2-31.4C168,166,130.2,128.2,84,128.2Zm0,39.3a37.72,37.72,0,1,1-.5-.1.9.9,0,0,0,.5.1Z"/><path d="M351,0a48.77,48.77,0,0,0-40,77l34,59c4.8,6.2,8,5,11.9-.3l37.6-64a33,33,0,0,0,1.9-4.3A48.26,48.26,0,0,0,400,49,49.14,49.14,0,0,0,351,0Zm0,22.9a25.85,25.85,0,1,1-.3,0Z"/><path d="M352.8,149.9c-9,.2-18,.6-27,1.3l1.4,22.2c8.7-.6,17.3-1,26-1.2Zm-47.9,3.2a269.44,269.44,0,0,0-41.7,8.1l5.2,21.5a268.75,268.75,0,0,1,38.8-7.6Zm-62.4,15.6a105.29,105.29,0,0,0-12,6.3h0a56,56,0,0,0-16,14.3,35.76,35.76,0,0,0-6.9,17.4L228,209a12.55,12.55,0,0,1,2.5-5.8h0a38.4,38.4,0,0,1,10.3-9h0a73,73,0,0,1,9.6-5ZM232,218.9l-13.2,17a50.89,50.89,0,0,0,9.6,6.9h0c10.5,6,21.4,9.4,31.4,12.6l5.8-21.3c-10.1-3.2-19.6-6.3-27.7-10.9a35.63,35.63,0,0,1-5.9-4.3Zm53.3,21.2-5.6,21.3,2.7.8,3.3,1c10.9,3.5,21.3,7.3,30.6,12.5l9.4-19.7c-11.2-6.3-22.9-10.4-34.1-14.1h0l-3.4-1.1ZM344.8,271l-14.5,15.7a30.18,30.18,0,0,1,7.2,12.8v.1a40.94,40.94,0,0,1,.3,18.1L358,322c1.6-9,1.9-19-.8-28.8A53.11,53.11,0,0,0,344.8,271Zm-13.9,60.1a55,55,0,0,1-7.3,6.3h0c-7.2,5.1-15.5,8.9-24.4,12.2l6.6,21c9.7-3.6,19.7-8,29-14.6h0a66,66,0,0,0,10.5-9.2Zm-50.6,24.4a397.27,397.27,0,0,1-39.3,8.3l3.1,22c13.7-2.3,27.4-5.1,41.1-8.7ZM221,366.8c-13.4,1.8-26.8,3.3-40.3,4.6l1.8,22.1c13.7-1.3,27.4-2.8,41.1-4.7Zm-60.6,6.3c-13.5,1.1-27.1,2-40.7,2.7l1,22.2q20.55-1,41.1-2.7Zm-61,3.7c-8.1.4-16.3.7-24.5,1l.7,22.2c8.2-.3,16.5-.6,24.7-1Z"/></svg>