<svg id="svg" xmlns="http://www.w3.org/2000/svg" viewBox="0 0 400 400"><title>task</title><path d="M390,377.65H178.89a10,10,0,0,1,0-20H390a10,10,0,0,1,0,20Z" transform="translate(0 0)"/><path d="M390,221.18H178.89a10,10,0,0,1,0-20H390a10,10,0,0,1,0,20Z" transform="translate(0 0)"/><path d="M390,64.71H178.89a10,10,0,0,1,0-20H390a10,10,0,1,1,0,20Z" transform="translate(0 0)"/><path d="M31.11,87.06a10,10,0,0,1-7.27-3.14L2.73,61.57A10,10,0,0,1,17.27,47.84L31.11,62.49,87.17,3.13a10,10,0,1,1,14.54,13.74L38.38,83.92A10,10,0,0,1,31.11,87.06Z" transform="translate(0 0)"/><path d="M31.11,243.53a10,10,0,0,1-7.27-3.13L2.73,218a10,10,0,0,1,14.54-13.73L31.11,219,87.17,159.6a10,10,0,1,1,14.54,13.74L38.38,240.4A10,10,0,0,1,31.11,243.53Z" transform="translate(0 0)"/><path d="M31.11,400a10,10,0,0,1-7.27-3.13L2.73,374.51a10,10,0,0,1,14.54-13.73l13.84,14.66,56.06-59.36a10,10,0,1,1,14.54,13.73L38.38,396.87A10,10,0,0,1,31.11,400Z" transform="translate(0 0)"/></svg>