<svg id="svg" xmlns="http://www.w3.org/2000/svg" viewBox="0 0 400 300"><title>truck</title><path d="M388.29,212.63H355a10,10,0,0,1,0-19.94h33.3a10,10,0,0,1,0,19.94Z"/><path d="M269.17,139.23a10,10,0,0,1-10-10V64.33a10,10,0,1,1,19.94,0v64.93A9.94,9.94,0,0,1,269.17,139.23Z"/><path d="M355.19,143H245.65a10,10,0,0,1,0-20H355.19a10,10,0,0,1,0,20Z"/><rect x="131.41" y="245.15" width="137.76" height="19.95"/><path d="M96.73,300h-.4c-30.5-1.89-44-24.83-43.46-45.38.4-21.54,15.65-43.78,44-44.38h.79c30.51,1.9,44,24.83,43.56,45.38-.4,21.54-15.65,43.68-43.95,44.38Zm0-69.81c-16.15.6-23.83,13.26-24,24.83-.19,10.77,6.08,23.64,24.43,25,16.14-.59,23.82-13.26,24-24.83C121.45,244.45,115.17,231.58,96.73,230.19Z"/><path d="M303.46,300h-.4c-30.5-1.89-44-24.83-43.56-45.38.4-21.54,15.65-43.68,44-44.38h.8c30.5,1.9,43.95,24.83,43.56,45.38-.4,21.54-15.65,43.68-44,44.38Zm0-69.81c-16.15.6-23.82,13.26-24,24.83-.2,10.77,6.08,23.64,24.42,25,16.15-.59,23.82-13.26,24-24.83C328.18,244.45,321.9,231.58,303.46,230.19Z"/><path d="M62.54,265.09H10.9a9.74,9.74,0,0,1-7.07-3,10.07,10.07,0,0,1-2.89-7.18c1.19-56.55.3-99.33-.4-133.74C-.66,57.85-1.26,29,14.69,13.17,29.15-1.19,53.07-.59,96.63.5c23,.6,51.73,1.3,88,.3h.4c27.31.4,49.24.1,66.79-.2C290.6,0,310-.29,323.59,8.88c14.16,9.58,18.25,27,25.52,58.64,2.29,9.68,4.79,20.75,8.08,33.51,2.59,9.28,3.88,15.66,4.68,19.85a48,48,0,0,0,1.2,5.39c.89.89,4.58,3,8.37,5.18l1.3.7c.1.1.29.1.39.2,5.19,3.29,10,6.08,14,8.28,2.59,1.49,4.58,2.69,6.08,3.59,2.09,1.29,8.37,5.18,6.48,12.56v98.14a10,10,0,0,1-10,10H338.05V245h41.66V159.58l-2.69-1.5c-4-2.29-9-5.19-14.35-8.58l-1.1-.59c-14.45-8.18-16.64-10.28-19.34-24a187.3,187.3,0,0,0-4.38-18.35.37.37,0,0,0-.1-.3c-3.39-13.06-5.88-24.23-8.18-34.11-6.18-26.73-9.56-41.49-17.34-46.67-8.37-5.69-26.81-5.39-60.3-4.89-17.65.3-39.68.6-67.19.2-36.68,1.1-65.59.3-88.91-.3-36.78-.9-58.91-1.5-67.38,6.78-9.87,9.88-9.27,39.5-8.18,93.45.7,32.51,1.5,72.41.6,124.37H62.34v20ZM389.68,144.62Z"/></svg>