<svg id="svg" xmlns="http://www.w3.org/2000/svg" viewBox="0 0 401.25 300.81"><defs><style>.cls-1,.cls-2,.cls-3{fill:none;stroke:#020202;stroke-width:20px;}.cls-1{stroke-linejoin:round;}.cls-2,.cls-3{stroke-miterlimit:333.33;}.cls-3{stroke-linecap:round;}</style></defs><title>truck</title><g id="group"><path id="path1" class="cls-1" d="M61.8,305H10C16.3,7.9-34.4,66.4,184.5,60c160.1,2.5,134.1-20.9,163.2,93.2,8.9,31.4,1,26.3,20.4,37.3,13.1,8.2,24.2,13.7,21.9,13.7V304.9H338.2" transform="translate(0.94 -49.2)"/><line id="line1" class="cls-2" x1="270.04" y1="255.8" x2="131.84" y2="255.8"/><path id="circle1" class="cls-2" d="M303.7,270c47.9,3,43.6,69,0,70C255.8,337,260.1,271,303.7,270Z" transform="translate(0.94 -49.2)"/><path id="circle2" class="cls-2" d="M96.3,270c47.9,3,43.6,69,0,70C48.4,337,52.8,271,96.3,270Z" transform="translate(0.94 -49.2)"/><line id="line2" class="cls-3" x1="246.44" y1="133.4" x2="356.34" y2="133.4"/><line id="line3" class="cls-3" x1="270.04" y1="64.5" x2="270.04" y2="129.6"/><line id="line6" class="cls-3" x1="356.14" y1="203.2" x2="389.54" y2="203.2"/></g></svg>