<svg id="svg" xmlns="http://www.w3.org/2000/svg" viewBox="0 0 400 400.01"><title>warehouse</title><path d="M356.22,400H43.78c-13,0-20.18,0-26.86-3.47A31.09,31.09,0,0,1,3.36,382.71C0,376,0,368.73,0,355.54V163.16c0-24.25,0-36.43,4-48.22A75.37,75.37,0,0,1,20.87,87.08c8.6-9,19.29-14.41,40.6-25.28l88.67-45.22c17.44-8.9,26.19-13.36,36.3-15.29a71.51,71.51,0,0,1,27.12,0c10.11,1.93,18.86,6.39,36.29,15.29L338.53,61.8,334,70.71l4.55-8.91c21.31,10.87,32,16.33,40.6,25.28A75.37,75.37,0,0,1,396,114.94c4,11.79,4,24,4,48.22V355.54c0,13.19,0,20.45-3.35,27.17a31.19,31.19,0,0,1-13.56,13.82C376.4,400,369.23,400,356.22,400Zm-40.66-20h40.66c9.21,0,15.29,0,17.64-1.22a11.23,11.23,0,0,0,4.89-5c1.25-2.49,1.25-8.42,1.25-18.23V163.16c0-22.06,0-33.14-2.94-41.81a55.09,55.09,0,0,0-12.36-20.42c-6.26-6.52-15.95-11.46-35.26-21.31L334,70.71l-4.54,8.91L240.77,34.4c-15.75-8-23.65-12.07-31-13.47a52.1,52.1,0,0,0-19.6,0c-7.32,1.4-15.22,5.43-31,13.46L70.56,79.62c-19.31,9.85-29,14.79-35.26,21.31a55.12,55.12,0,0,0-12.37,20.42C20,130,20,141.1,20,163.16V355.54c0,9.81,0,15.74,1.25,18.24a11.26,11.26,0,0,0,4.89,5C28.49,380,34.57,380,43.78,380H84.44V187.57c0-13.18,0-20.45,3.36-27.16a31.14,31.14,0,0,1,13.56-13.82c6.68-3.47,13.85-3.47,26.86-3.47H271.78c13,0,20.18,0,26.86,3.47a31.14,31.14,0,0,1,13.56,13.82c3.36,6.71,3.36,14,3.36,27.16Zm-211.12,0H295.56V249.26H104.44Zm0-150.74H295.56V187.57c0-9.81,0-15.73-1.25-18.22a11.28,11.28,0,0,0-4.89-5c-2.35-1.22-8.43-1.22-17.64-1.22H128.22c-9.21,0-15.29,0-17.64,1.22a11.31,11.31,0,0,0-4.89,5c-1.25,2.5-1.25,8.42-1.25,18.23Z" transform="translate(0 0.01)"/></svg>